<svg width="100" height="100" viewBox="0 0 100 100" fill="none" xmlns="http://www.w3.org/2000/svg">
<path fill-rule="evenodd" clip-rule="evenodd" d="M44.4284 10.4118C47.5707 7.17524 52.766 7.17525 55.9082 10.4118L57.7012 12.2586C59.2224 13.8255 61.3181 14.7024 63.5019 14.6858L66.0895 14.6661C70.5545 14.6322 74.183 18.2599 74.15 22.7249L74.1289 25.5902C74.1131 27.7328 74.9575 29.7922 76.4729 31.3071L78.5083 33.3417C81.6339 36.4662 81.6339 41.5331 78.5083 44.6575L76.4729 46.6922C74.9575 48.207 74.1131 50.2665 74.1289 52.4091L74.15 55.2743C74.183 59.7394 70.5545 63.3671 66.0895 63.3331L63.5019 63.3135C61.3181 63.2969 59.2224 64.1738 57.7012 65.7406L55.9082 67.5875C52.766 70.824 47.5707 70.824 44.4284 67.5875L42.6354 65.7406C41.1142 64.1738 39.0185 63.2969 36.8348 63.3135L34.2471 63.3331C29.7821 63.3671 26.1537 59.7394 26.1866 55.2743L26.2077 52.4091C26.2235 50.2665 25.3792 48.207 23.8637 46.6922L21.8283 44.6575C18.7027 41.5331 18.7027 36.4662 21.8283 33.3417L23.8637 31.3071C25.3792 29.7922 26.2235 27.7328 26.2077 25.5901L26.1866 22.7249C26.1537 18.2599 29.7821 14.6322 34.2471 14.6661L36.8348 14.6858C39.0185 14.7024 41.1142 13.8255 42.6354 12.2586L44.4284 10.4118ZM51.8657 38.5712L50.0298 36.7346C49.6093 36.314 49.0394 36.077 48.4446 36.0754C47.8498 36.0738 47.2786 36.3078 46.8559 36.7262L34.0921 48.5056C33.6273 48.9437 33.3222 49.502 33.294 50.127C33.2805 50.4371 33.331 50.7465 33.4424 51.0362C33.5539 51.3258 33.7238 51.5893 33.9416 51.8103L36.6838 54.5827L36.6861 54.5853L36.6887 54.5877C37.1125 55.01 37.6858 55.2481 38.2841 55.25H38.3671C38.9922 55.2268 39.5518 54.9336 39.9962 54.4646L51.8579 41.7592C52.0683 41.5506 52.2354 41.3026 52.3496 41.0294C52.4639 40.7561 52.5231 40.463 52.5238 40.1668C52.5245 39.8706 52.4668 39.5772 52.3538 39.3034C52.2409 39.0296 52.075 38.7807 51.8657 38.5712ZM66.62 34.8594L66.5983 34.8376L64.1886 32.4526C64.0475 32.3119 63.8799 32.2006 63.6955 32.125C63.5111 32.0495 63.3135 32.0112 63.1143 32.0124C62.7914 32.0127 62.4768 32.1146 62.215 32.3035C62.215 32.2821 62.2171 32.261 62.2191 32.2412L62.2213 32.2178L62.2216 32.2138C62.2532 31.7567 62.3009 31.0684 61.8557 30.4445C61.3248 29.729 60.742 29.0535 60.1119 28.4237L60.1087 28.4202L60.1063 28.4181C59.1697 27.4956 57.1314 25.7581 54.0088 24.4848C52.8246 23.9988 51.5567 23.7491 50.2766 23.75C48.0575 23.75 46.37 24.7513 45.7239 25.3447C45.358 25.6942 45.0243 26.0759 44.7268 26.4852C44.5847 26.6813 44.5097 26.9181 44.513 27.1603C44.5162 27.4025 44.5976 27.6372 44.7449 27.8294C44.8922 28.0217 45.0976 28.1613 45.3307 28.2274C45.5637 28.2936 45.8118 28.2828 46.0382 28.1966C46.2354 28.1229 46.4368 28.0611 46.6415 28.0117C47.0676 27.9215 47.5047 27.8943 47.9387 27.9308C48.8661 28.0074 49.963 28.468 50.4482 28.8512C51.2708 29.5128 51.6667 30.4044 51.7321 31.7403C51.7447 32.0089 51.1893 33.0158 50.3258 34.1647C50.1614 34.3815 50.081 34.6506 50.0998 34.9221C50.1185 35.1936 50.2351 35.4491 50.4278 35.6413L52.8472 38.0607C53.0505 38.2645 53.3242 38.3826 53.612 38.3907C53.8997 38.3988 54.1796 38.2963 54.3941 38.1043C55.0783 37.4933 56.1203 36.5722 56.4845 36.3465C57.0252 36.0139 57.4119 35.9499 57.5181 35.9387C57.7936 35.9117 58.0708 35.9701 58.3119 36.106C58.3131 36.1181 58.3118 36.1302 58.3081 36.1417C58.3057 36.149 58.3023 36.156 58.2981 36.1624C58.2957 36.1661 58.2931 36.1696 58.2901 36.1728L58.1622 36.2945L58.1411 36.3142C57.9997 36.455 57.8875 36.6225 57.8111 36.8069C57.7347 36.9913 57.6956 37.189 57.6959 37.3886C57.6962 37.5882 57.736 37.7857 57.813 37.9699C57.89 38.154 58.0027 38.3211 58.1446 38.4615L60.5535 40.8458C60.6947 40.9864 60.8623 41.0976 61.0467 41.173C61.2311 41.2484 61.4286 41.2866 61.6279 41.2852C62.0279 41.2859 62.4122 41.1293 62.698 40.8493L66.6004 36.9948C66.6137 36.9814 66.6271 36.9674 66.6397 36.9533C66.9015 36.6663 67.045 36.2909 67.0414 35.9025C67.0377 35.514 66.8872 35.1414 66.62 34.8594Z" fill="#9EA3B5"/>
<path d="M56.0119 74.7414L65.0123 92.1376C65.7426 93.5491 67.7482 93.586 68.53 92.2023L73.0938 84.1243L68.4607 76.543C67.8848 75.6005 68.1819 74.3695 69.1244 73.7935C70.0669 73.2176 71.2979 73.5147 71.8739 74.4572L76.5586 82.1232L86.1254 83.0987C87.7065 83.2599 88.835 81.6016 88.1046 80.19L78.5803 61.7813C76.2322 66.2979 71.4942 69.3741 66.0439 69.3327L63.4563 69.3131C62.9104 69.3089 62.3864 69.5281 62.0061 69.9198L60.2131 71.7667C58.9689 73.0483 57.5407 74.0398 56.0119 74.7414Z" fill="#9EA3B5"/>
<path d="M22.6343 63.2442L13.8669 80.1898C13.1366 81.6014 14.265 83.2598 15.8461 83.0985L25.2674 82.1378L29.9612 74.457C30.5372 73.5145 31.7682 73.2174 32.7107 73.7933C33.6532 74.3693 33.9503 75.6003 33.3744 76.5428L28.8122 84.0081L33.4416 92.2021C34.2234 93.5858 36.2289 93.5489 36.9593 92.1374L45.6812 75.2795C43.6416 74.5915 41.7294 73.4205 40.1235 71.7665L38.3305 69.9197C37.9502 69.5279 37.4263 69.3087 36.8803 69.3129L34.2927 69.3325C29.4538 69.3693 25.1763 66.9485 22.6343 63.2442Z" fill="#9EA3B5"/>
</svg>
