<svg width="37" height="36" viewBox="0 0 37 36" fill="none" xmlns="http://www.w3.org/2000/svg">
<path d="M16.6522 6.02131C17.268 4.12604 19.9493 4.12604 20.5651 6.0213L22.188 11.0162C22.4634 11.8638 23.2533 12.4376 24.1445 12.4376H29.3964C31.3892 12.4376 32.2178 14.9877 30.6056 16.159L26.3567 19.246C25.6357 19.7699 25.334 20.6984 25.6094 21.546L27.2323 26.5409C27.8481 28.4361 25.6789 30.0122 24.0667 28.8408L19.8178 25.7538C19.0968 25.23 18.1205 25.23 17.3995 25.7538L13.1506 28.8408C11.5384 30.0122 9.36915 28.4362 9.98496 26.5409L11.6079 21.546C11.8833 20.6984 11.5816 19.7699 10.8606 19.246L6.61169 16.159C4.99948 14.9877 5.82805 12.4376 7.82085 12.4376H13.0728C13.964 12.4376 14.7538 11.8638 15.0292 11.0162L16.6522 6.02131Z" fill="#E3E6F0"/>
</svg>
