<svg width="27" height="26" viewBox="0 0 27 26" fill="none" xmlns="http://www.w3.org/2000/svg">
<path d="M11.6522 2.02131C12.268 0.126038 14.9493 0.126035 15.5651 2.0213L17.188 7.01618C17.4634 7.86377 18.2533 8.43764 19.1445 8.43764H24.3964C26.3892 8.43764 27.2178 10.9877 25.6056 12.159L21.3567 15.246C20.6357 15.7699 20.334 16.6984 20.6094 17.546L22.2323 22.5409C22.8481 24.4361 20.6789 26.0122 19.0667 24.8408L14.8178 21.7538C14.0968 21.23 13.1205 21.23 12.3995 21.7538L8.15058 24.8408C6.53837 26.0122 4.36915 24.4362 4.98496 22.5409L6.60789 17.546C6.88329 16.6984 6.58159 15.7699 5.86059 15.246L1.61169 12.159C-0.000517368 10.9877 0.828049 8.43764 2.82085 8.43764H8.07278C8.96399 8.43764 9.75384 7.86377 10.0292 7.01618L11.6522 2.02131Z" fill="#FFA928"/>
</svg>
